<?xml version="1.0" encoding="UTF-8" standalone="no"?>
<svg
   xmlns:dc="http://purl.org/dc/elements/1.1/"
   xmlns:cc="http://creativecommons.org/ns#"
   xmlns:rdf="http://www.w3.org/1999/02/22-rdf-syntax-ns#"
   xmlns:svg="http://www.w3.org/2000/svg"
   xmlns="http://www.w3.org/2000/svg"
   xmlns:sodipodi="http://sodipodi.sourceforge.net/DTD/sodipodi-0.dtd"
   xmlns:inkscape="http://www.inkscape.org/namespaces/inkscape"
   width="210mm"
   height="297mm"
   viewBox="0 0 210 297"
   version="1.1"
   id="svg8"
   inkscape:version="1.0.2 (e86c8708, 2021-01-15)"
   sodipodi:docname="melcome_logo.svg">
  <defs
     id="defs2">
    <filter
       inkscape:collect="always"
       style="color-interpolation-filters:sRGB"
       id="filter1036"
       x="-7.2782932e-05"
       width="1.0001456"
       y="-3.0715539e-05"
       height="1.0000614">
      <feGaussianBlur
         inkscape:collect="always"
         stdDeviation="0.0003630043"
         id="feGaussianBlur1038" />
    </filter>
  </defs>
  <sodipodi:namedview
     id="base"
     pagecolor="#ffffff"
     bordercolor="#666666"
     borderopacity="1.0"
     inkscape:pageopacity="0.0"
     inkscape:pageshadow="2"
     inkscape:zoom="0.49497475"
     inkscape:cx="338.9555"
     inkscape:cy="-171.84408"
     inkscape:document-units="mm"
     inkscape:current-layer="layer1"
     inkscape:document-rotation="0"
     showgrid="false"
     inkscape:window-width="1680"
     inkscape:window-height="1050"
     inkscape:window-x="0"
     inkscape:window-y="0"
     inkscape:window-maximized="0" />
  <metadata
     id="metadata5">
    <rdf:RDF>
      <cc:Work
         rdf:about="">
        <dc:format>image/svg+xml</dc:format>
        <dc:type
           rdf:resource="http://purl.org/dc/dcmitype/StillImage" />
        <dc:title></dc:title>
      </cc:Work>
    </rdf:RDF>
  </metadata>
  <g
     inkscape:label="Layer 1"
     inkscape:groupmode="layer"
     id="layer1">
    <path
       style="fill:#2176bb;fill-opacity:1;stroke:#000000;stroke-width:0;stroke-linecap:butt;stroke-linejoin:miter;stroke-miterlimit:4;stroke-dasharray:none;stroke-opacity:1"
       d="m 117.31319,79.353102 21.93329,-0.462247 -5.09417,-9.399099 h -11.46194 l -7.64127,-12.788947 -1.69806,0.153859 -10.75439,-18.181871 -4.245151,7.70421 19.386201,32.973892"
       id="path883"
       sodipodi:nodetypes="ccccccccc" />
    <path
       style="fill:#2e3b7b;fill-opacity:1;stroke:#000000;stroke-width:0;stroke-linecap:butt;stroke-linejoin:miter;stroke-miterlimit:4;stroke-dasharray:none;stroke-opacity:1"
       d="m 113.35104,56.85675 3.96215,-9.398978 8.77332,-0.153858 -3.25462,8.474577 -9.48085,1.078466"
       id="path885" />
    <path
       style="fill:#2e3b7b;fill-opacity:1;stroke:#000000;stroke-width:0;stroke-linecap:butt;stroke-linejoin:miter;stroke-miterlimit:4;stroke-dasharray:none;stroke-opacity:1"
       d="M 130.04865,9.3991012 135.14281,2.1673127e-6 156.93462,0.15416661 179.99994,42.373079 160.18925,87.981845 142.6426,60.400859 l 4.10365,-8.474573 11.46191,18.798164 5.66021,-11.093979 -11.17891,-18.335978 4.38666,-8.166441 10.47138,16.949219 4.10364,-8.012339 -19.10318,-31.433072 z"
       id="path893" />
    <path
       style="fill:none;stroke:#000000;stroke-width:0;stroke-linecap:butt;stroke-linejoin:miter;stroke-miterlimit:4;stroke-dasharray:none;stroke-opacity:1"
       d="M 152.54796,10.631952 156.93462,0.1542597"
       id="path895" />
    <path
       style="fill:none;stroke:#000000;stroke-width:0.826901px;stroke-linecap:butt;stroke-linejoin:miter;stroke-opacity:1"
       d="m 130.04865,9.3991012 5.5187,9.8613758 11.74492,-0.308323 6.79226,13.251192 -6.65076,0.30807 -4.24516,9.553193 10.6129,17.719642 -0.42451,1.540839"
       id="path897" />
    <path
       style="fill:#000000;fill-opacity:0;stroke:#000000;stroke-width:0.826901px;stroke-linecap:butt;stroke-linejoin:miter;stroke-opacity:1"
       d="m 146.74625,51.926381 -9.90536,-0.924685 -3.96213,9.553174 18.39564,28.96775 8.91485,-1.540678"
       id="path899" />
    <path
       style="fill:none;stroke:#000000;stroke-width:0.826901px;stroke-linecap:butt;stroke-linejoin:miter;stroke-opacity:1"
       d="m 153.397,61.325321 0.42451,-1.540841 10.04686,-0.153859 -5.66021,11.093972 -4.81116,-9.39922"
       id="path901" />
    <path
       style="fill:#bde2ed;fill-opacity:1;stroke:#000000;stroke-width:0;stroke-linecap:butt;stroke-linejoin:miter;stroke-miterlimit:4;stroke-dasharray:none;stroke-opacity:1"
       d="m 112.78502,88.598134 21.65028,0.153855 4.81118,-9.861314 -21.93329,0.462254 z"
       id="path903" />
    <path
       style="fill:#ffffff;fill-opacity:1;stroke:#000000;stroke-width:0;stroke-linecap:butt;stroke-linejoin:miter;stroke-miterlimit:4;stroke-dasharray:none;stroke-opacity:1"
       d="m 153.82151,59.78448 10.04686,-0.153859 -11.17891,-18.335985 -9.48085,0.770256"
       id="path905" />
    <path
       style="fill:none;stroke:#000000;stroke-width:0.826901px;stroke-linecap:butt;stroke-linejoin:miter;stroke-opacity:1"
       d="m 132.87876,60.55487 9.76384,-0.153862"
       id="path907" />
    <path
       style="fill:#ffffff;fill-opacity:1;stroke:#000000;stroke-width:0.309957;stroke-linecap:butt;stroke-linejoin:miter;stroke-miterlimit:4;stroke-dasharray:none;stroke-opacity:1"
       d="m 154.10453,32.203467 2.97159,0.924679 -4.38666,8.166438 -9.48085,0.770253 4.24516,-9.553195 6.65076,-0.308071"
       id="path909"
       sodipodi:nodetypes="cccccc" />
    <path
       style="fill:#2176bb;fill-opacity:1;stroke:#000000;stroke-width:0;stroke-linecap:butt;stroke-linejoin:miter;stroke-miterlimit:4;stroke-dasharray:none;stroke-opacity:1"
       d="m 117.31319,47.457772 -10.7544,-17.719602 4.81117,-10.477693 5.51871,7.241915 -0.84903,2.003083 10.04687,18.798354"
       id="path911" />
    <path
       style="fill:#2176bb;fill-opacity:1;stroke:#000000;stroke-width:0;stroke-linecap:butt;stroke-linejoin:miter;stroke-miterlimit:4;stroke-dasharray:none;stroke-opacity:1"
       d="M 127.07703,28.505475 110.23792,0.61634978 120.00179,0.30802087 136.84089,28.659453 127.64305,28.505595 Z"
       id="path913" />
    <path
       style="fill:#2e3b7b;fill-opacity:1;stroke:#000000;stroke-width:0;stroke-linecap:butt;stroke-linejoin:miter;stroke-miterlimit:4;stroke-dasharray:none;stroke-opacity:1"
       d="m 127.07703,28.505475 -3.25462,8.782785 9.33934,0.153865 3.67914,-8.78276 z"
       id="path915" />
    <path
       style="fill:#ffffff;fill-opacity:1;stroke:#000000;stroke-width:0.1;stroke-linecap:butt;stroke-linejoin:miter;stroke-miterlimit:4;stroke-dasharray:none;stroke-opacity:1;filter:url(#filter1036)"
       d="m 8.8184522,25.582051 -6.122051,-10.63022 1.370607,-2.48371 3.47221,5.86153 1.279234,-3.03007 -3.472209,-5.7125005 1.553357,-3.37783 1.781792,2.33467 -0.274121,0.64576 L 10.920053,12.021101 11.970852,9.1896805 6.5341042,0.1987005 8.7121031e-4,15.150551 7.3564712,28.562531 Z"
       id="path917"
       transform="matrix(3.0972755,0,0,3.1019005,90,5.7049516e-7)" />
    <path
       style="fill:#ffffff;fill-opacity:1;stroke:#000000;stroke-width:0;stroke-linecap:butt;stroke-linejoin:miter;stroke-miterlimit:4;stroke-dasharray:none;stroke-opacity:1"
       d="m 157.07612,33.128146 -2.97159,-0.924679 -6.79226,-13.251195 -11.74492,0.308324 -5.5187,-9.8613763 22.49931,1.2328503 19.10318,31.43308 -4.10364,8.01234 z"
       id="path919" />
    <path
       style="fill:#ffffff;fill-opacity:1;stroke:#000000;stroke-width:0.309957;stroke-linecap:butt;stroke-linejoin:miter;stroke-miterlimit:4;stroke-dasharray:none;stroke-opacity:1"
       d="m 142.6426,60.40095 4.10365,-8.474569 -9.90536,-0.924685 -3.96213,9.553174 z"
       id="path921" />
    <path
       style="fill:#ffffff;fill-opacity:1;stroke:#000000;stroke-width:0;stroke-linecap:butt;stroke-linejoin:miter;stroke-miterlimit:4;stroke-dasharray:none;stroke-opacity:1"
       d="M 132.87876,60.55487 151.2744,89.52262 160.18925,87.981942 142.6426,60.40095 Z"
       id="path923" />
    <path
       style="fill:#2176bb;fill-opacity:1;stroke:#000000;stroke-width:0;stroke-linecap:butt;stroke-linejoin:round;stroke-miterlimit:4;stroke-dasharray:none;stroke-opacity:1"
       d="m 153.82151,59.78448 -0.42451,1.540841 4.81116,9.399218 5.66021,-11.093973 z"
       id="path925" />
    <path
       style="fill:#2175ba;fill-opacity:1;stroke:#000000;stroke-width:0;stroke-linecap:butt;stroke-linejoin:miter;stroke-miterlimit:4;stroke-dasharray:none;stroke-opacity:1"
       d="m 171.65114,42.065026 -8.91481,0.153862 4.81117,7.858446 z"
       id="path927" />
  </g>
</svg>
